# xmcd
#
# Track frame offsets: 
#        150
#        26947
#        49973
#        70771
#        94267
#        121210
#        140580
#        155568
#        170023
#        195763
#        216655
#        235352
#
# Disc length: 3321 seconds
#
# Revision: 0
# Processed by: cddbd v1.5.2PL0 Copyright (c) Steve Scherf et al.
# Submitted via: ExactAudioCopy v1.0b2
#
DISCID=b40cf70c
DTITLE=Rudy Rotta - Me, My Music And My Life - Disc 2
DYEAR=2011
DGENRE=Blues
TTITLE0=Hold On
TTITLE1=I'M In The Groove
TTITLE2=Vu Cumpra'
TTITLE3=Mama Save The Chlidren
TTITLE4=Truth
TTITLE5=Come Together
TTITLE6=Lookin' Good
TTITLE7=I Been Up I Been Low
TTITLE8=St. James Infirmary
TTITLE9=No One Cares
TTITLE10=It's All Over Now Baby Blue
TTITLE11=Song For Uwe 2
EXTD=
EXTT0=
EXTT1=
EXTT2=
EXTT3=
EXTT4=
EXTT5=
EXTT6=
EXTT7=
EXTT8=
EXTT9=
EXTT10=
EXTT11=
PLAYORDER=
